<?xml version="1.0" encoding="UTF-8" standalone="no"?>
<!DOCTYPE svg PUBLIC "-//W3C//DTD SVG 1.1//EN" "http://www.w3.org/Graphics/SVG/1.1/DTD/svg11.dtd">
<svg width="100%" height="100%" viewBox="0 0 1942 1528" version="1.1" xmlns="http://www.w3.org/2000/svg" xmlns:xlink="http://www.w3.org/1999/xlink" xml:space="preserve" xmlns:serif="http://www.serif.com/" style="fill-rule:evenodd;clip-rule:evenodd;stroke-linejoin:round;stroke-miterlimit:2;">
    <g transform="matrix(1,0,0,1,-10521.3,-6273.13)">
        <g id="background.svg" transform="matrix(2.71868,0,0,2.71868,11491.8,7037.08)">
            <g transform="matrix(1,0,0,1,-357,-281)">
                <clipPath id="_clip1">
                    <rect x="0" y="0" width="714" height="562"/>
                </clipPath>
                <g clip-path="url(#_clip1)">
                    <g id="Counting-App-Objects" serif:id="Counting App Objects" transform="matrix(3.13568,0,0,1.77141,-2109.12,-1102.73)">
                        <g>
                            <rect x="578.452" y="456.459" width="588.277" height="1024.09" style="fill:none;"/>
                            <g transform="matrix(0.425062,0,0,0.779326,418.192,-1647.6)">
                                <rect x="599.522" y="2912.92" width="534.645" height="406.446" style="fill:rgb(180,247,255);"/>
                            </g>
                            <g id="Background" transform="matrix(1.12607,0,-0.00269162,1.17421,-137.715,-301.726)">
                                <g transform="matrix(0.376946,0,-1.98698e-21,0.6637,496.152,-1146.19)">
                                    <rect x="599.522" y="2912.92" width="534.645" height="406.446" style="fill:rgb(180,247,255);"/>
                                </g>
                                <g transform="matrix(0.374024,0,-1.81109e-19,0.411297,437.484,-163.537)">
                                    <rect x="761.064" y="2701.88" width="539.849" height="265.338" style="fill:rgb(0,176,57);"/>
                                </g>
                                <g id="clouds" transform="matrix(1,0,0,1,-32.2158,19.3558)">
                                    <g transform="matrix(0.255012,0,0,0.891652,624.137,-1909.17)">
                                        <path d="M1259.08,3059.74C1259.08,3068.4 1244.61,3075.43 1226.78,3075.43L1111.27,3075.43C1093.44,3075.43 1078.97,3068.4 1078.97,3059.74C1078.97,3051.09 1093.44,3044.06 1111.27,3044.06L1226.78,3044.06C1244.61,3044.06 1259.08,3051.09 1259.08,3059.74Z" style="fill:white;"/>
                                    </g>
                                    <g transform="matrix(0.175617,0,0,1.0042,716.952,-2270.21)">
                                        <path d="M1259.08,3059.74C1259.08,3068.4 1235.41,3075.43 1206.25,3075.43L1131.8,3075.43C1102.64,3075.43 1078.97,3068.4 1078.97,3059.74C1078.97,3051.09 1102.64,3044.06 1131.8,3044.06L1206.25,3044.06C1235.41,3044.06 1259.08,3051.09 1259.08,3059.74Z" style="fill:white;"/>
                                    </g>
                                    <g transform="matrix(0.255012,0,0,0.891652,496.857,-1880.03)">
                                        <path d="M1259.08,3059.74C1259.08,3068.4 1244.61,3075.43 1226.78,3075.43L1111.27,3075.43C1093.44,3075.43 1078.97,3068.4 1078.97,3059.74C1078.97,3051.09 1093.44,3044.06 1111.27,3044.06L1226.78,3044.06C1244.61,3044.06 1259.08,3051.09 1259.08,3059.74Z" style="fill:white;"/>
                                    </g>
                                    <g transform="matrix(0.175617,0,0,1.0042,589.672,-2241.07)">
                                        <path d="M1259.08,3059.74C1259.08,3068.4 1235.41,3075.43 1206.25,3075.43L1131.8,3075.43C1102.64,3075.43 1078.97,3068.4 1078.97,3059.74C1078.97,3051.09 1102.64,3044.06 1131.8,3044.06L1206.25,3044.06C1235.41,3044.06 1259.08,3051.09 1259.08,3059.74Z" style="fill:white;"/>
                                    </g>
                                </g>
                            </g>
                        </g>
                    </g>
                </g>
            </g>
        </g>
    </g>
</svg>
