<?xml version="1.0" encoding="UTF-8" standalone="no"?>
<!DOCTYPE svg PUBLIC "-//W3C//DTD SVG 1.1//EN" "http://www.w3.org/Graphics/SVG/1.1/DTD/svg11.dtd">
<svg width="100%" height="100%" viewBox="0 0 377 354" version="1.1" xmlns="http://www.w3.org/2000/svg" xmlns:xlink="http://www.w3.org/1999/xlink" xml:space="preserve" xmlns:serif="http://www.serif.com/" style="fill-rule:evenodd;clip-rule:evenodd;stroke-linecap:round;stroke-linejoin:round;stroke-miterlimit:1.5;">
    <g transform="matrix(1,0,0,1,-1655.73,-717.478)">
        <g transform="matrix(1.69521,-0.0258072,0.0242154,1.59065,829.579,158.902)">
            <circle cx="591.571" cy="471.73" r="110.957" style="fill:rgb(233,233,233);"/>
            <clipPath id="_clip1">
                <circle cx="591.571" cy="471.73" r="110.957"/>
            </clipPath>
            <g clip-path="url(#_clip1)">
                <g id="Layer4" transform="matrix(0.384275,0.00623457,-0.00585003,0.409534,473.842,271.933)">
                    <g transform="matrix(2.6017,-0.0396071,0.0371642,2.44123,-1242.9,-645.084)">
                        <circle cx="591.571" cy="471.73" r="110.957" style="fill:rgb(233,233,233);"/>
                    </g>
                    <g transform="matrix(1,-0.000559811,0,1,0,0.0450835)">
                        <g>
                            <g transform="matrix(1.39622,0,0,1.81935,-324.141,-187.012)">
                                <path d="M440.531,276.582C512.488,276.582 573.349,317.595 573.349,368.112C573.349,391.001 589.487,443.206 556.765,466.017C514.957,495.162 331.167,470.553 319.31,462.905C258.84,423.901 310.154,418.629 310.154,368.112C310.154,323.556 355.601,286.393 415.7,278.243C423.739,277.153 432.041,276.582 440.531,276.582Z" style="fill:rgb(19,19,19);"/>
                            </g>
                            <g transform="matrix(0.955969,-0.293467,0.335787,1.09382,-180.07,122.715)">
                                <g transform="matrix(-0.374325,-0.494881,-1.34006,1.01361,828.831,255.356)">
                                    <path d="M464.271,235.913C463.372,234.012 483.921,239.118 489.879,248.416C491.967,251.673 490.39,257.585 490.39,257.585L448.516,257.585C464.769,254.133 468.858,245.606 464.271,235.913Z"/>
                                </g>
                                <g transform="matrix(0.374325,-0.494881,1.34006,1.01361,-212.756,248.877)">
                                    <path d="M447.1,235.182C468.3,241.963 478.489,250.744 473.735,262.238L448.516,257.585L447.1,235.182Z"/>
                                </g>
                            </g>
                        </g>
                        <g transform="matrix(1.06175,-0.00974348,0.00974348,1.06176,-40.136,-41.2724)">
                            <g transform="matrix(1.12976,-0.823414,1.14671,1.57278,-726.941,311.429)">
                                <path d="M624.912,485.829C624.912,497.423 611.814,506.836 595.681,506.836L508.431,506.836C492.297,506.836 479.199,497.423 479.199,485.829C479.199,474.236 492.297,464.823 508.431,464.823L595.681,464.823C611.814,464.823 624.912,474.236 624.912,485.829Z" style="fill:rgb(249,90,47);"/>
                            </g>
                            <g transform="matrix(1.48872,0.0144949,-0.0130393,1.4209,-602.092,-73.4219)">
                                <ellipse cx="768.016" cy="437.006" rx="30.156" ry="30.691" style="fill:rgb(253,190,122);"/>
                            </g>
                        </g>
                        <g transform="matrix(0.769622,-1.18635,1.87594,1.21759,-1192.95,760.349)">
                            <path d="M624.912,485.829C624.912,497.423 610.034,506.836 591.708,506.836L512.404,506.836C494.078,506.836 479.199,497.423 479.199,485.829C479.199,474.236 494.078,464.823 512.404,464.823L591.708,464.823C610.034,464.823 624.912,474.236 624.912,485.829Z" style="fill:rgb(249,90,47);"/>
                        </g>
                        <g transform="matrix(1.61976,0.225286,-0.158558,1.14,-322.762,-123.645)">
                            <path d="M521.659,645.165L521.659,692.48C521.659,752.236 487.509,800.75 445.447,800.75L417.828,800.75C375.766,800.75 341.616,752.236 341.616,692.48L341.616,645.165C341.616,585.409 375.766,536.895 417.828,536.895L445.447,536.895C487.509,536.895 521.659,585.409 521.659,645.165Z" style="fill:rgb(249,90,47);"/>
                        </g>
                        <g id="Layer5" transform="matrix(1.53473,0,0,1.53473,-360.617,-94.1174)">
                            <g transform="matrix(1,0,0,1,1.29767,-5.97701)">
                                <path d="M424.852,296.798C478.342,296.798 508.22,357.41 513.113,411.24C518.086,465.947 496.325,478.503 429.855,480.455C364.598,482.371 327.015,456.213 337.302,402.252C348.286,344.627 371.362,296.798 424.852,296.798Z" style="fill:rgb(253,190,122);"/>
                            </g>
                            <g transform="matrix(0.90066,0,0,1.21672,33.3801,-84.0176)">
                                <path d="M373.143,362.99L327.936,362.99L341.319,321.573L435.542,301.818L525.274,325.248L543.148,362.99L393.166,362.99L386.279,331.544L373.143,362.99Z" style="fill:rgb(19,19,19);"/>
                            </g>
                            <g>
                                <g transform="matrix(0.784152,0,0,0.784152,97.0175,112.554)">
                                    <circle cx="354.086" cy="359.747" r="46.076" style="fill:rgb(206,206,206);fill-opacity:0.39;stroke:rgb(173,76,19);stroke-width:11.23px;"/>
                                </g>
                                <g transform="matrix(0.784152,0,0,0.784152,198.946,114.192)">
                                    <circle cx="354.086" cy="359.747" r="46.076" style="fill:rgb(206,206,206);fill-opacity:0.39;stroke:rgb(173,76,19);stroke-width:11.23px;"/>
                                </g>
                                <g transform="matrix(0.975239,0,0,1.08475,9.51018,-28.0339)">
                                    <path d="M445.013,374.967L445.013,384.719C445.013,384.719 436.731,378.343 427.351,378.289C419.069,378.241 410.17,384.719 410.17,384.719L410.17,374.967C410.17,374.967 419.67,371.174 427.591,371.079C436.492,370.972 445.013,374.967 445.013,374.967Z" style="fill:rgb(173,76,19);"/>
                                </g>
                            </g>
                            <g transform="matrix(1,0,0,1.00781,-2.21994,-35.6724)">
                                <path d="M411.433,454.878L428.223,454.878L445.013,454.878C445.013,462.109 437.496,467.971 428.223,467.971C418.95,467.971 411.433,462.109 411.433,454.878Z" style="fill:rgb(207,0,60);fill-opacity:0.39;"/>
                            </g>
                            <g transform="matrix(0.999979,0.00655599,-0.0100671,1.53552,-1.06346,-217.241)">
                                <path d="M511.287,403.08L452.211,403.08C452.211,392.254 465.436,383.477 481.749,383.477C498.062,383.477 511.287,392.254 511.287,403.08Z" style="fill:white;"/>
                                <clipPath id="_clip2">
                                    <path d="M511.287,403.08L452.211,403.08C452.211,392.254 465.436,383.477 481.749,383.477C498.062,383.477 511.287,392.254 511.287,403.08Z"/>
                                </clipPath>
                                <g clip-path="url(#_clip2)">
                                    <g transform="matrix(1.31391,-0.0056098,0.0102672,1.01985,-29.3486,-5.06582)">
                                        <circle cx="385.848" cy="402.447" r="11.173"/>
                                    </g>
                                </g>
                            </g>
                            <g transform="matrix(-0.999979,0.00655599,0.0100671,1.53552,851.673,-217.027)">
                                <path d="M511.287,403.08L452.211,403.08C452.211,392.254 465.436,383.477 481.749,383.477C498.062,383.477 511.287,392.254 511.287,403.08Z" style="fill:white;"/>
                                <clipPath id="_clip3">
                                    <path d="M511.287,403.08L452.211,403.08C452.211,392.254 465.436,383.477 481.749,383.477C498.062,383.477 511.287,392.254 511.287,403.08Z"/>
                                </clipPath>
                                <g clip-path="url(#_clip3)">
                                    <g transform="matrix(1.31391,-0.0056098,0.0102672,1.01985,-29.3486,-5.06582)">
                                        <circle cx="385.848" cy="402.447" r="11.173"/>
                                    </g>
                                </g>
                            </g>
                        </g>
                    </g>
                    <g transform="matrix(1.53473,0,0,1.53473,-360.617,-94.1174)">
                        <path d="M557.02,421.683C557.219,419.093 555.945,373.507 583.894,366.52C589.606,365.092 594.379,376.215 586.103,411.184C587.633,408.372 607.706,371.474 619.962,389.858C626.365,399.463 599.688,421.76 597.176,423.86C665.756,415.071 594.198,473.107 571.164,457.751C543.86,439.548 570.556,401.273 569.75,400.466" style="fill:none;"/>
                    </g>
                    <g transform="matrix(1.53473,0,0,1.53473,-360.617,-94.1174)">
                        <path d="M571.351,431.183L569.042,430.877" style="fill:none;"/>
                    </g>
                </g>
            </g>
        </g>
    </g>
</svg>
