<?xml version="1.0" encoding="UTF-8" standalone="no"?>
<!DOCTYPE svg PUBLIC "-//W3C//DTD SVG 1.1//EN" "http://www.w3.org/Graphics/SVG/1.1/DTD/svg11.dtd">
<svg width="100%" height="100%" viewBox="0 0 2401 2305" version="1.1" xmlns="http://www.w3.org/2000/svg" xmlns:xlink="http://www.w3.org/1999/xlink" xml:space="preserve" xmlns:serif="http://www.serif.com/" style="fill-rule:evenodd;clip-rule:evenodd;stroke-linecap:round;stroke-linejoin:round;stroke-miterlimit:1.5;">
    <g transform="matrix(1,0,0,1,-6731.74,-524.777)">
        <g transform="matrix(0.863051,0,0,0.890854,864.32,30.1412)">
            <g transform="matrix(12.5329,-0.00689055,0.0068298,11.6591,771.769,-3646.97)">
                <circle cx="591.571" cy="471.73" r="110.957" style="fill:rgb(233,233,233);"/>
                <clipPath id="_clip1">
                    <circle cx="591.571" cy="471.73" r="110.957"/>
                </clipPath>
                <g clip-path="url(#_clip1)">
                    <g id="Layer4" transform="matrix(0.384321,0.000227135,5.33835e-05,0.40958,472.614,272.05)">
                        <g transform="matrix(2.6017,-0.0396071,0.0371642,2.44123,-1242.9,-645.084)">
                            <circle cx="591.571" cy="471.73" r="110.957" style="fill:rgb(233,233,233);"/>
                        </g>
                        <g transform="matrix(1,-0.000559811,0,1,0,0.0450835)">
                            <g>
                                <g transform="matrix(1.39622,0,0,1.81935,-324.141,-187.012)">
                                    <path d="M440.531,276.582C512.488,276.582 573.349,317.595 573.349,368.112C573.349,391.001 589.487,443.206 556.765,466.017C514.957,495.162 331.167,470.553 319.31,462.905C258.84,423.901 310.154,418.629 310.154,368.112C310.154,323.556 355.601,286.393 415.7,278.243C423.739,277.153 432.041,276.582 440.531,276.582Z" style="fill:rgb(19,19,19);"/>
                                </g>
                                <g transform="matrix(0.955969,-0.293467,0.335787,1.09382,-180.07,122.715)">
                                    <g transform="matrix(-0.374325,-0.494881,-1.34006,1.01361,828.831,255.356)">
                                        <path d="M464.271,235.913C463.372,234.012 483.921,239.118 489.879,248.416C491.967,251.673 490.39,257.585 490.39,257.585L448.516,257.585C464.769,254.133 468.858,245.606 464.271,235.913Z"/>
                                    </g>
                                    <g transform="matrix(0.374325,-0.494881,1.34006,1.01361,-212.756,248.877)">
                                        <path d="M447.1,235.182C468.3,241.963 478.489,250.744 473.735,262.238L448.516,257.585L447.1,235.182Z"/>
                                    </g>
                                </g>
                            </g>
                            <g transform="matrix(0.863349,-0.617624,0.617623,0.864041,-312.752,433.833)">
                                <g transform="matrix(1.12976,-0.823414,1.14671,1.57278,-726.941,311.429)">
                                    <path d="M624.912,485.829C624.912,497.423 612.05,506.836 596.208,506.836L507.904,506.836C492.061,506.836 479.199,497.423 479.199,485.829C479.199,474.236 492.061,464.823 507.904,464.823L596.208,464.823C612.05,464.823 624.912,474.236 624.912,485.829Z" style="fill:rgb(249,90,47);"/>
                                </g>
                                <g transform="matrix(0.563624,1.49057,-1.51891,0.573612,841.223,-564.011)">
                                    <path d="M572.877,438.819C563.662,426.549 563.38,409.658 584.712,400.898C608.189,391.257 620.377,411.197 618.74,426.03C617.759,434.918 610.306,441.791 596.376,445.311C587.603,447.528 578.391,446.16 572.877,438.819Z" style="fill:rgb(253,190,122);"/>
                                </g>
                            </g>
                            <g transform="matrix(0.632917,-1.26114,2.00045,1.01082,-1147.49,914.53)">
                                <path d="M624.912,485.829C624.912,497.423 610.167,506.836 592.005,506.836L512.106,506.836C493.944,506.836 479.199,497.423 479.199,485.829C479.199,474.236 493.944,464.823 512.106,464.823L592.005,464.823C610.167,464.823 624.912,474.236 624.912,485.829Z" style="fill:rgb(249,90,47);"/>
                            </g>
                            <g transform="matrix(-0.979207,-1.05219,-1.63357,1.51524,1766.36,546.388)">
                                <path d="M624.912,485.829C624.912,497.423 610.351,506.836 592.416,506.836L511.696,506.836C493.76,506.836 479.199,497.423 479.199,485.829C479.199,474.236 493.76,464.823 511.696,464.823L592.416,464.823C610.351,464.823 624.912,474.236 624.912,485.829Z" style="fill:rgb(249,90,47);"/>
                            </g>
                            <g transform="matrix(1.72488,-0.119506,0.0777961,1.1226,-505.299,47.094)">
                                <path d="M521.659,648.585L521.659,689.06C521.659,750.703 488.333,800.75 447.285,800.75L415.99,800.75C374.942,800.75 341.616,750.703 341.616,689.06L341.616,648.585C341.616,586.942 374.942,536.895 415.99,536.895L447.285,536.895C488.333,536.895 521.659,586.942 521.659,648.585Z" style="fill:rgb(249,90,47);"/>
                            </g>
                            <g id="Layer7" transform="matrix(0.240557,0.000134666,-0.00016917,0.235066,-1616.09,80.329)">
                                <g transform="matrix(1,3.64488e-20,-2.39905e-20,1.22127,-1.36424e-12,-488.766)">
                                    <path d="M7937.39,2172.47C8045.72,2172.47 8128.12,2232.05 8128.12,2298.21C8128.12,2364.37 8045.72,2423.95 7937.39,2423.95C7829.06,2423.95 7746.66,2364.37 7746.66,2298.21C7746.66,2232.05 7829.06,2172.47 7937.39,2172.47Z" style="fill:rgb(229,70,27);"/>
                                </g>
                                <g transform="matrix(1,3.64488e-20,-2.39905e-20,1.22127,-1.36424e-12,-488.766)">
                                    <path d="M7937.39,2228.64C7978.67,2228.64 8015.52,2240.42 8038.21,2259.32C8051.35,2270.26 8059.52,2283.61 8059.52,2298.21C8059.52,2312.81 8051.35,2326.16 8038.21,2337.1C8015.52,2356 7978.67,2367.78 7937.39,2367.78C7896.11,2367.78 7859.26,2356 7836.57,2337.1C7823.43,2326.16 7815.26,2312.81 7815.26,2298.21C7815.26,2283.61 7823.43,2270.26 7836.57,2259.32C7859.26,2240.42 7896.11,2228.64 7937.39,2228.64Z" style="fill:rgb(242,160,100);"/>
                                </g>
                            </g>
                            <g id="Layer5" transform="matrix(1.53473,0,0,1.53473,-360.617,-94.1174)">
                                <g transform="matrix(1,0,0,1,1.29767,-5.97701)">
                                    <path d="M424.852,296.798C478.342,296.798 508.22,357.41 513.113,411.24C518.086,465.947 496.325,478.503 429.855,480.455C364.598,482.371 327.015,456.213 337.302,402.252C348.286,344.627 371.362,296.798 424.852,296.798Z" style="fill:rgb(253,190,122);"/>
                                </g>
                                <g transform="matrix(0.90066,0,0,1.21672,33.3801,-84.0176)">
                                    <path d="M373.143,362.99L327.936,362.99L341.319,321.573L435.542,301.818L525.274,325.248L543.148,362.99L393.166,362.99L386.279,331.544L373.143,362.99Z" style="fill:rgb(19,19,19);"/>
                                </g>
                                <g>
                                    <g transform="matrix(0.784152,0,0,0.784152,97.0175,112.554)">
                                        <circle cx="354.086" cy="359.747" r="46.076" style="fill:rgb(206,206,206);fill-opacity:0.39;stroke:rgb(173,76,19);stroke-width:9.05px;"/>
                                    </g>
                                    <g transform="matrix(0.784152,0,0,0.784152,198.946,114.192)">
                                        <circle cx="354.086" cy="359.747" r="46.076" style="fill:rgb(206,206,206);fill-opacity:0.39;stroke:rgb(173,76,19);stroke-width:9.05px;"/>
                                    </g>
                                    <g transform="matrix(0.975184,0.010017,-0.00996171,0.926037,12.3783,28.2611)">
                                        <path d="M445.013,374.967L445.013,384.719C445.013,384.719 436.731,378.343 427.351,378.289C419.069,378.241 410.17,384.719 410.17,384.719L410.17,374.967C410.17,374.967 419.67,371.174 427.591,371.079C436.492,370.972 445.013,374.967 445.013,374.967Z" style="fill:rgb(173,76,19);"/>
                                    </g>
                                </g>
                                <g transform="matrix(1,0,0,1.00781,-2.21994,-35.6724)">
                                    <path d="M411.433,454.878L428.223,454.878L445.013,454.878C445.013,462.109 437.496,467.971 428.223,467.971C418.95,467.971 411.433,462.109 411.433,454.878Z" style="fill:rgb(207,0,60);fill-opacity:0.39;"/>
                                </g>
                                <g transform="matrix(0.999979,0.00655599,-0.0100671,1.53552,-1.06346,-217.241)">
                                    <path d="M511.287,403.08L452.211,403.08C452.211,392.254 465.436,383.477 481.749,383.477C498.062,383.477 511.287,392.254 511.287,403.08Z" style="fill:white;"/>
                                    <clipPath id="_clip2">
                                        <path d="M511.287,403.08L452.211,403.08C452.211,392.254 465.436,383.477 481.749,383.477C498.062,383.477 511.287,392.254 511.287,403.08Z"/>
                                    </clipPath>
                                    <g clip-path="url(#_clip2)">
                                        <g transform="matrix(1.31391,-0.0056098,0.0102672,1.01985,-29.3486,-5.06582)">
                                            <circle cx="385.848" cy="402.447" r="11.173"/>
                                        </g>
                                    </g>
                                </g>
                                <g transform="matrix(-0.999979,0.00655599,0.0100671,1.53552,851.673,-217.027)">
                                    <path d="M511.287,403.08L452.211,403.08C452.211,392.254 465.436,383.477 481.749,383.477C498.062,383.477 511.287,392.254 511.287,403.08Z" style="fill:white;"/>
                                    <clipPath id="_clip3">
                                        <path d="M511.287,403.08L452.211,403.08C452.211,392.254 465.436,383.477 481.749,383.477C498.062,383.477 511.287,392.254 511.287,403.08Z"/>
                                    </clipPath>
                                    <g clip-path="url(#_clip3)">
                                        <g transform="matrix(1.31391,-0.0056098,0.0102672,1.01985,-29.3486,-5.06582)">
                                            <circle cx="385.848" cy="402.447" r="11.173"/>
                                        </g>
                                    </g>
                                </g>
                            </g>
                        </g>
                    </g>
                </g>
            </g>
        </g>
    </g>
</svg>
